<?xml version="1.0" encoding="iso-8859-1"?>
<!-- Generator: Adobe Illustrator 19.1.0, SVG Export Plug-In . SVG Version: 6.00 Build 0)  -->
<svg version="1.1" id="Capa_1" xmlns="http://www.w3.org/2000/svg" xmlns:xlink="http://www.w3.org/1999/xlink" x="0px" y="0px"
	 viewBox="0 0 356.267 356.267" style="enable-background:new 0 0 356.267 356.267;" xml:space="preserve">
<g>
	<g>
		<g>
			<circle style="fill:#33cc99;" cx="260.848" cy="151.1" r="26.469"/>
			<circle style="fill:#33cc99;" cx="178.142" cy="151.1" r="26.469"/>
			<circle style="fill:#33cc99;" cx="95.419" cy="151.1" r="26.469"/>
		</g>
		<path style="fill:#33cc99;" d="M80.173,356.267c-10.658,0-19.34-8.646-19.34-19.287v-46.055
			c-35.344-9.917-60.278-42.173-60.278-79.335V82.529C0.556,37.021,37.559,0,83.067,0H273.2c45.508,0,82.511,37.021,82.511,82.529
			V211.59c0,45.508-37.021,82.529-82.511,82.529H155.485l-62.378,57.084C89.543,354.467,84.938,356.267,80.173,356.267z
			 M83.067,17.646c-35.768,0-64.866,29.098-64.866,64.883V211.59c0,31.162,22.322,57.931,53.078,63.666l7.199,1.341v60.384
			c0,1.57,1.676,1.641,1.676,1.641c0.388,0,0.706-0.141,1.041-0.423l67.442-61.725h124.579c35.768,0,64.866-29.098,64.866-64.883
			V82.529c0-35.786-29.098-64.883-64.866-64.883H83.067z"/>
	</g>
	<g>
	</g>
	<g>
	</g>
	<g>
	</g>
	<g>
	</g>
	<g>
	</g>
	<g>
	</g>
	<g>
	</g>
	<g>
	</g>
	<g>
	</g>
	<g>
	</g>
	<g>
	</g>
	<g>
	</g>
	<g>
	</g>
	<g>
	</g>
	<g>
	</g>
</g>
<g>
</g>
<g>
</g>
<g>
</g>
<g>
</g>
<g>
</g>
<g>
</g>
<g>
</g>
<g>
</g>
<g>
</g>
<g>
</g>
<g>
</g>
<g>
</g>
<g>
</g>
<g>
</g>
<g>
</g>
</svg>
